<?xml version="1.0" encoding="UTF-8" ?>
<svg version="1.1" width="64" height="64" xmlns="http://www.w3.org/2000/svg" shape-rendering="crispEdges">
<rect x="42" y="5" width="18" height="1" fill="#D5D2CF" />
<rect x="42" y="6" width="1" height="1" fill="#D5D2CF" />
<rect x="43" y="6" width="2" height="1" fill="#B9B6B4" />
<rect x="45" y="6" width="1" height="1" fill="#D5D2CF" />
<rect x="46" y="6" width="13" height="4" fill="#F6F5F1" />
<rect x="59" y="6" width="1" height="1" fill="#D5D2CF" />
<rect x="32" y="7" width="3" height="1" fill="#D5D2CF" />
<rect x="35" y="7" width="11" height="3" fill="#F6F5F1" />
<rect x="59" y="7" width="1" height="1" fill="#B9B6B4" />
<rect x="24" y="8" width="1" height="1" fill="#B9B6B4" />
<rect x="25" y="8" width="1" height="1" fill="#D5D2CF" />
<rect x="26" y="8" width="9" height="3" fill="#F6F5F1" />
<rect x="59" y="8" width="1" height="2" fill="#D5D2CF" />
<rect x="24" y="9" width="2" height="31" fill="#F6F5F1" />
<rect x="35" y="10" width="5" height="1" fill="#F6F5F1" />
<rect x="40" y="10" width="1" height="1" fill="#D5D2CF" />
<rect x="41" y="10" width="1" height="1" fill="#B9B6B4" />
<rect x="42" y="10" width="12" height="1" fill="#2E5CB8" />
<rect x="54" y="10" width="1" height="1" fill="#B9B6B4" />
<rect x="55" y="10" width="4" height="27" fill="#F6F5F1" />
<rect x="59" y="10" width="1" height="3" fill="#B9B6B4" />
<rect x="26" y="11" width="3" height="1" fill="#F6F5F1" />
<rect x="29" y="11" width="1" height="1" fill="#D5D2CF" />
<rect x="30" y="11" width="14" height="22" fill="#2E5CB8" />
<rect x="44" y="11" width="1" height="1" fill="#B9B6B4" />
<rect x="45" y="11" width="10" height="17" fill="#2E5CB8" />
<rect x="26" y="12" width="1" height="7" fill="#F6F5F1" />
<rect x="27" y="12" width="1" height="22" fill="#B9B6B4" />
<rect x="28" y="12" width="2" height="21" fill="#2E5CB8" />
<rect x="44" y="12" width="1" height="22" fill="#2E5CB8" />
<rect x="59" y="13" width="1" height="1" fill="#D5D2CF" />
<rect x="59" y="14" width="1" height="1" fill="#B9B6B4" />
<rect x="59" y="15" width="1" height="8" fill="#D5D2CF" />
<rect x="60" y="18" width="1" height="2" fill="#F6F5F1" />
<rect x="26" y="19" width="1" height="1" fill="#D5D2CF" />
<rect x="61" y="19" width="1" height="1" fill="#D5D2CF" />
<rect x="26" y="20" width="1" height="14" fill="#B9B6B4" />
<rect x="60" y="20" width="2" height="1" fill="#2E5CB8" />
<rect x="60" y="21" width="1" height="1" fill="#D5D2CF" />
<rect x="61" y="21" width="1" height="2" fill="#F6F5F1" />
<rect x="23" y="22" width="1" height="3" fill="#D5D2CF" />
<rect x="60" y="22" width="1" height="3" fill="#F6F5F1" />
<rect x="59" y="23" width="1" height="4" fill="#B9B6B4" />
<rect x="61" y="23" width="1" height="3" fill="#D5D2CF" />
<rect x="23" y="25" width="1" height="6" fill="#B9B6B4" />
<rect x="60" y="25" width="1" height="1" fill="#D5D2CF" />
<rect x="60" y="26" width="1" height="1" fill="#2E5CB8" />
<rect x="61" y="26" width="1" height="3" fill="#B9B6B4" />
<rect x="59" y="27" width="1" height="1" fill="#D5D2CF" />
<rect x="60" y="27" width="1" height="4" fill="#F6F5F1" />
<rect x="45" y="28" width="9" height="6" fill="#2E5CB8" />
<rect x="54" y="28" width="1" height="6" fill="#B9B6B4" />
<rect x="59" y="28" width="1" height="1" fill="#B9B6B4" />
<rect x="59" y="29" width="1" height="3" fill="#D5D2CF" />
<rect x="61" y="29" width="1" height="2" fill="#2E5CB8" />
<rect x="23" y="31" width="1" height="3" fill="#D5D2CF" />
<rect x="60" y="31" width="2" height="2" fill="#B9B6B4" />
<rect x="59" y="32" width="1" height="1" fill="#B9B6B4" />
<rect x="28" y="33" width="4" height="1" fill="#B9B6B4" />
<rect x="32" y="33" width="12" height="1" fill="#2E5CB8" />
<rect x="59" y="33" width="1" height="3" fill="#D5D2CF" />
<rect x="60" y="33" width="1" height="3" fill="#F6F5F1" />
<rect x="61" y="33" width="1" height="1" fill="#D5D2CF" />
<rect x="23" y="34" width="1" height="6" fill="#F6F5F1" />
<rect x="26" y="34" width="23" height="1" fill="#F6F5F1" />
<rect x="49" y="34" width="5" height="1" fill="#D5D2CF" />
<rect x="54" y="34" width="1" height="4" fill="#F6F5F1" />
<rect x="61" y="34" width="1" height="2" fill="#B9B6B4" />
<rect x="26" y="35" width="1" height="5" fill="#F6F5F1" />
<rect x="27" y="35" width="1" height="1" fill="#D5D2CF" />
<rect x="28" y="35" width="26" height="3" fill="#F6F5F1" />
<rect x="27" y="36" width="1" height="4" fill="#F6F5F1" />
<rect x="59" y="36" width="1" height="1" fill="#2E5CB8" />
<rect x="60" y="36" width="1" height="2" fill="#B9B6B4" />
<rect x="21" y="37" width="2" height="6" fill="#2E5CB8" />
<rect x="55" y="37" width="3" height="1" fill="#F6F5F1" />
<rect x="58" y="37" width="1" height="1" fill="#D5D2CF" />
<rect x="59" y="37" width="1" height="2" fill="#B9B6B4" />
<rect x="61" y="37" width="1" height="1" fill="#B9B6B4" />
<rect x="62" y="37" width="1" height="1" fill="#F6F5F1" />
<rect x="15" y="38" width="6" height="2" fill="#2E5CB8" />
<rect x="28" y="38" width="7" height="2" fill="#F6F5F1" />
<rect x="35" y="38" width="1" height="1" fill="#D5D2CF" />
<rect x="36" y="38" width="4" height="1" fill="#B9B6B4" />
<rect x="40" y="38" width="1" height="1" fill="#2E5CB8" />
<rect x="41" y="38" width="9" height="1" fill="#B9B6B4" />
<rect x="50" y="38" width="1" height="1" fill="#2E5CB8" />
<rect x="51" y="38" width="2" height="1" fill="#B9B6B4" />
<rect x="53" y="38" width="1" height="1" fill="#2E5CB8" />
<rect x="54" y="38" width="2" height="1" fill="#B9B6B4" />
<rect x="56" y="38" width="1" height="1" fill="#D5D2CF" />
<rect x="57" y="38" width="1" height="3" fill="#F6F5F1" />
<rect x="58" y="38" width="1" height="1" fill="#B9B6B4" />
<rect x="60" y="38" width="2" height="1" fill="#F6F5F1" />
<rect x="62" y="38" width="1" height="1" fill="#D5D2CF" />
<rect x="35" y="39" width="22" height="1" fill="#F6F5F1" />
<rect x="58" y="39" width="1" height="2" fill="#D5D2CF" />
<rect x="59" y="39" width="1" height="2" fill="#F6F5F1" />
<rect x="60" y="39" width="1" height="1" fill="#2E5CB8" />
<rect x="61" y="39" width="1" height="2" fill="#F6F5F1" />
<rect x="62" y="39" width="1" height="2" fill="#2E5CB8" />
<rect x="18" y="40" width="3" height="3" fill="#2E5CB8" />
<rect x="23" y="40" width="2" height="1" fill="#B9B6B4" />
<rect x="25" y="40" width="1" height="1" fill="#2E5CB8" />
<rect x="26" y="40" width="7" height="1" fill="#B9B6B4" />
<rect x="33" y="40" width="2" height="1" fill="#2E5CB8" />
<rect x="35" y="40" width="2" height="1" fill="#B9B6B4" />
<rect x="37" y="40" width="1" height="2" fill="#D5D2CF" />
<rect x="38" y="40" width="19" height="1" fill="#F6F5F1" />
<rect x="60" y="40" width="1" height="3" fill="#F6F5F1" />
<rect x="23" y="41" width="14" height="1" fill="#F6F5F1" />
<rect x="38" y="41" width="1" height="1" fill="#B9B6B4" />
<rect x="39" y="41" width="2" height="1" fill="#2E5CB8" />
<rect x="41" y="41" width="3" height="1" fill="#B9B6B4" />
<rect x="44" y="41" width="11" height="1" fill="#2E5CB8" />
<rect x="55" y="41" width="5" height="1" fill="#B9B6B4" />
<rect x="61" y="41" width="2" height="1" fill="#B9B6B4" />
<rect x="23" y="42" width="1" height="1" fill="#B9B6B4" />
<rect x="24" y="42" width="1" height="1" fill="#F6F5F1" />
<rect x="25" y="42" width="2" height="1" fill="#2E5CB8" />
<rect x="27" y="42" width="31" height="2" fill="#F6F5F1" />
<rect x="58" y="42" width="1" height="3" fill="#D5D2CF" />
<rect x="59" y="42" width="1" height="2" fill="#F6F5F1" />
<rect x="61" y="42" width="1" height="1" fill="#B9B6B4" />
<rect x="18" y="43" width="1" height="1" fill="#2E5CB8" />
<rect x="19" y="43" width="3" height="1" fill="#F6F5F1" />
<rect x="22" y="43" width="3" height="1" fill="#D5D2CF" />
<rect x="25" y="43" width="1" height="7" fill="#B9B6B4" />
<rect x="26" y="43" width="1" height="1" fill="#D5D2CF" />
<rect x="60" y="43" width="1" height="1" fill="#B9B6B4" />
<rect x="12" y="44" width="2" height="5" fill="#B9B6B4" />
<rect x="14" y="44" width="1" height="1" fill="#2E5CB8" />
<rect x="15" y="44" width="10" height="1" fill="#B9B6B4" />
<rect x="26" y="44" width="1" height="6" fill="#B9B6B4" />
<rect x="27" y="44" width="1" height="1" fill="#F6F5F1" />
<rect x="28" y="44" width="3" height="1" fill="#B9B6B4" />
<rect x="31" y="44" width="1" height="1" fill="#D5D2CF" />
<rect x="32" y="44" width="10" height="1" fill="#F6F5F1" />
<rect x="42" y="44" width="3" height="1" fill="#D5D2CF" />
<rect x="45" y="44" width="1" height="5" fill="#B9B6B4" />
<rect x="46" y="44" width="1" height="1" fill="#D5D2CF" />
<rect x="47" y="44" width="11" height="1" fill="#F6F5F1" />
<rect x="59" y="44" width="1" height="1" fill="#B9B6B4" />
<rect x="9" y="45" width="1" height="1" fill="#2E5CB8" />
<rect x="10" y="45" width="2" height="1" fill="#B9B6B4" />
<rect x="14" y="45" width="4" height="4" fill="#B9B6B4" />
<rect x="18" y="45" width="1" height="1" fill="#2E5CB8" />
<rect x="19" y="45" width="6" height="1" fill="#B9B6B4" />
<rect x="27" y="45" width="2" height="2" fill="#B9B6B4" />
<rect x="29" y="45" width="1" height="1" fill="#2E5CB8" />
<rect x="30" y="45" width="4" height="1" fill="#B9B6B4" />
<rect x="34" y="45" width="1" height="1" fill="#2E5CB8" />
<rect x="35" y="45" width="10" height="1" fill="#B9B6B4" />
<rect x="46" y="45" width="1" height="3" fill="#B9B6B4" />
<rect x="47" y="45" width="10" height="1" fill="#F6F5F1" />
<rect x="57" y="45" width="1" height="4" fill="#B9B6B4" />
<rect x="58" y="45" width="1" height="1" fill="#2E5CB8" />
<rect x="6" y="46" width="3" height="1" fill="#2E5CB8" />
<rect x="9" y="46" width="2" height="3" fill="#B9B6B4" />
<rect x="11" y="46" width="1" height="1" fill="#2E5CB8" />
<rect x="18" y="46" width="6" height="1" fill="#B9B6B4" />
<rect x="24" y="46" width="1" height="1" fill="#2E5CB8" />
<rect x="29" y="46" width="3" height="2" fill="#B9B6B4" />
<rect x="32" y="46" width="1" height="1" fill="#2E5CB8" />
<rect x="33" y="46" width="3" height="2" fill="#B9B6B4" />
<rect x="36" y="46" width="1" height="1" fill="#2E5CB8" />
<rect x="37" y="46" width="8" height="1" fill="#B9B6B4" />
<rect x="47" y="46" width="1" height="1" fill="#D5D2CF" />
<rect x="48" y="46" width="2" height="1" fill="#F6F5F1" />
<rect x="50" y="46" width="4" height="1" fill="#B9B6B4" />
<rect x="54" y="46" width="1" height="1" fill="#2E5CB8" />
<rect x="55" y="46" width="2" height="1" fill="#B9B6B4" />
<rect x="58" y="46" width="4" height="1" fill="#B9B6B4" />
<rect x="4" y="47" width="1" height="1" fill="#B9B6B4" />
<rect x="5" y="47" width="1" height="1" fill="#2E5CB8" />
<rect x="6" y="47" width="3" height="2" fill="#B9B6B4" />
<rect x="11" y="47" width="1" height="2" fill="#B9B6B4" />
<rect x="18" y="47" width="1" height="3" fill="#B9B6B4" />
<rect x="19" y="47" width="1" height="1" fill="#2E5CB8" />
<rect x="20" y="47" width="5" height="1" fill="#B9B6B4" />
<rect x="27" y="47" width="1" height="3" fill="#B9B6B4" />
<rect x="28" y="47" width="1" height="2" fill="#2E5CB8" />
<rect x="32" y="47" width="1" height="4" fill="#B9B6B4" />
<rect x="36" y="47" width="1" height="4" fill="#B9B6B4" />
<rect x="37" y="47" width="1" height="2" fill="#2E5CB8" />
<rect x="38" y="47" width="4" height="4" fill="#B9B6B4" />
<rect x="42" y="47" width="1" height="2" fill="#2E5CB8" />
<rect x="43" y="47" width="2" height="4" fill="#B9B6B4" />
<rect x="47" y="47" width="2" height="2" fill="#F6F5F1" />
<rect x="49" y="47" width="4" height="2" fill="#B9B6B4" />
<rect x="53" y="47" width="1" height="1" fill="#2E5CB8" />
<rect x="54" y="47" width="2" height="2" fill="#B9B6B4" />
<rect x="56" y="47" width="1" height="1" fill="#2E5CB8" />
<rect x="58" y="47" width="1" height="1" fill="#B9B6B4" />
<rect x="59" y="47" width="1" height="1" fill="#2E5CB8" />
<rect x="60" y="47" width="2" height="3" fill="#B9B6B4" />
<rect x="62" y="47" width="2" height="3" fill="#F6F5F1" />
<rect x="2" y="48" width="2" height="3" fill="#F6F5F1" />
<rect x="4" y="48" width="1" height="1" fill="#D5D2CF" />
<rect x="5" y="48" width="1" height="1" fill="#B9B6B4" />
<rect x="19" y="48" width="1" height="2" fill="#B9B6B4" />
<rect x="20" y="48" width="1" height="1" fill="#2E5CB8" />
<rect x="21" y="48" width="4" height="2" fill="#B9B6B4" />
<rect x="29" y="48" width="2" height="2" fill="#B9B6B4" />
<rect x="31" y="48" width="1" height="1" fill="#2E5CB8" />
<rect x="33" y="48" width="1" height="4" fill="#B9B6B4" />
<rect x="34" y="48" width="1" height="1" fill="#2E5CB8" />
<rect x="35" y="48" width="1" height="3" fill="#B9B6B4" />
<rect x="46" y="48" width="1" height="4" fill="#F6F5F1" />
<rect x="53" y="48" width="1" height="4" fill="#B9B6B4" />
<rect x="56" y="48" width="1" height="4" fill="#B9B6B4" />
<rect x="58" y="48" width="1" height="3" fill="#2E5CB8" />
<rect x="59" y="48" width="1" height="5" fill="#B9B6B4" />
<rect x="1" y="49" width="1" height="2" fill="#F6F5F1" />
<rect x="4" y="49" width="2" height="2" fill="#F6F5F1" />
<rect x="6" y="49" width="6" height="1" fill="#D5D2CF" />
<rect x="12" y="49" width="1" height="3" fill="#F6F5F1" />
<rect x="13" y="49" width="1" height="1" fill="#D5D2CF" />
<rect x="14" y="49" width="1" height="3" fill="#F6F5F1" />
<rect x="15" y="49" width="2" height="1" fill="#D5D2CF" />
<rect x="17" y="49" width="1" height="1" fill="#B9B6B4" />
<rect x="20" y="49" width="1" height="1" fill="#B9B6B4" />
<rect x="28" y="49" width="1" height="1" fill="#B9B6B4" />
<rect x="31" y="49" width="1" height="1" fill="#B9B6B4" />
<rect x="34" y="49" width="1" height="2" fill="#B9B6B4" />
<rect x="37" y="49" width="1" height="2" fill="#B9B6B4" />
<rect x="42" y="49" width="1" height="2" fill="#B9B6B4" />
<rect x="45" y="49" width="1" height="1" fill="#D5D2CF" />
<rect x="47" y="49" width="1" height="3" fill="#F6F5F1" />
<rect x="48" y="49" width="1" height="1" fill="#D5D2CF" />
<rect x="49" y="49" width="1" height="2" fill="#2E5CB8" />
<rect x="50" y="49" width="2" height="3" fill="#B9B6B4" />
<rect x="52" y="49" width="1" height="1" fill="#2E5CB8" />
<rect x="54" y="49" width="1" height="3" fill="#B9B6B4" />
<rect x="55" y="49" width="1" height="1" fill="#2E5CB8" />
<rect x="57" y="49" width="1" height="1" fill="#2E5CB8" />
<rect x="6" y="50" width="6" height="1" fill="#F6F5F1" />
<rect x="13" y="50" width="1" height="2" fill="#F6F5F1" />
<rect x="15" y="50" width="5" height="2" fill="#F6F5F1" />
<rect x="20" y="50" width="1" height="1" fill="#D5D2CF" />
<rect x="21" y="50" width="1" height="1" fill="#B9B6B4" />
<rect x="22" y="50" width="1" height="1" fill="#D5D2CF" />
<rect x="23" y="50" width="3" height="3" fill="#F6F5F1" />
<rect x="26" y="50" width="2" height="1" fill="#D5D2CF" />
<rect x="28" y="50" width="1" height="3" fill="#F6F5F1" />
<rect x="29" y="50" width="3" height="1" fill="#D5D2CF" />
<rect x="45" y="50" width="1" height="2" fill="#F6F5F1" />
<rect x="48" y="50" width="1" height="2" fill="#B9B6B4" />
<rect x="52" y="50" width="1" height="2" fill="#B9B6B4" />
<rect x="55" y="50" width="1" height="2" fill="#B9B6B4" />
<rect x="57" y="50" width="1" height="1" fill="#B9B6B4" />
<rect x="60" y="50" width="1" height="3" fill="#B9B6B4" />
<rect x="61" y="50" width="1" height="1" fill="#D5D2CF" />
<rect x="62" y="50" width="1" height="2" fill="#F6F5F1" />
<rect x="63" y="50" width="1" height="1" fill="#D5D2CF" />
<rect x="8" y="51" width="2" height="1" fill="#B9B6B4" />
<rect x="10" y="51" width="2" height="1" fill="#F6F5F1" />
<rect x="20" y="51" width="3" height="1" fill="#F6F5F1" />
<rect x="26" y="51" width="2" height="2" fill="#F6F5F1" />
<rect x="29" y="51" width="3" height="2" fill="#F6F5F1" />
<rect x="32" y="51" width="1" height="1" fill="#D5D2CF" />
<rect x="34" y="51" width="1" height="1" fill="#D5D2CF" />
<rect x="35" y="51" width="1" height="3" fill="#F6F5F1" />
<rect x="36" y="51" width="1" height="1" fill="#D5D2CF" />
<rect x="37" y="51" width="3" height="3" fill="#F6F5F1" />
<rect x="40" y="51" width="1" height="1" fill="#D5D2CF" />
<rect x="41" y="51" width="2" height="3" fill="#F6F5F1" />
<rect x="43" y="51" width="2" height="1" fill="#D5D2CF" />
<rect x="49" y="51" width="1" height="1" fill="#B9B6B4" />
<rect x="57" y="51" width="1" height="1" fill="#2E5CB8" />
<rect x="58" y="51" width="1" height="2" fill="#B9B6B4" />
<rect x="61" y="51" width="1" height="5" fill="#F6F5F1" />
<rect x="63" y="51" width="1" height="1" fill="#F6F5F1" />
<rect x="20" y="52" width="1" height="1" fill="#B9B6B4" />
<rect x="21" y="52" width="1" height="1" fill="#D5D2CF" />
<rect x="22" y="52" width="1" height="1" fill="#F6F5F1" />
<rect x="32" y="52" width="3" height="1" fill="#F6F5F1" />
<rect x="36" y="52" width="1" height="2" fill="#F6F5F1" />
<rect x="40" y="52" width="1" height="2" fill="#F6F5F1" />
<rect x="43" y="52" width="2" height="2" fill="#F6F5F1" />
<rect x="45" y="52" width="1" height="1" fill="#B9B6B4" />
<rect x="46" y="52" width="2" height="1" fill="#D5D2CF" />
<rect x="48" y="52" width="7" height="3" fill="#F6F5F1" />
<rect x="55" y="52" width="3" height="1" fill="#D5D2CF" />
<rect x="62" y="52" width="2" height="1" fill="#D5D2CF" />
<rect x="30" y="53" width="1" height="1" fill="#D5D2CF" />
<rect x="31" y="53" width="1" height="1" fill="#B9B6B4" />
<rect x="32" y="53" width="1" height="1" fill="#D5D2CF" />
<rect x="33" y="53" width="2" height="1" fill="#F6F5F1" />
<rect x="45" y="53" width="3" height="2" fill="#F6F5F1" />
<rect x="55" y="53" width="2" height="2" fill="#F6F5F1" />
<rect x="57" y="53" width="3" height="1" fill="#D5D2CF" />
<rect x="60" y="53" width="1" height="3" fill="#F6F5F1" />
<rect x="62" y="53" width="1" height="3" fill="#F6F5F1" />
<rect x="43" y="54" width="1" height="1" fill="#B9B6B4" />
<rect x="44" y="54" width="1" height="1" fill="#D5D2CF" />
<rect x="57" y="54" width="3" height="2" fill="#F6F5F1" />
<rect x="53" y="55" width="1" height="1" fill="#D5D2CF" />
<rect x="54" y="55" width="1" height="1" fill="#B9B6B4" />
<rect x="55" y="55" width="1" height="1" fill="#D5D2CF" />
<rect x="56" y="55" width="1" height="1" fill="#F6F5F1" />
</svg>